<mxfile host="app.diagrams.net" modified="2021-11-22T00:08:45.724Z" agent="5.0 (Windows NT 10.0; Win64; x64) AppleWebKit/537.36 (KHTML, like Gecko) Chrome/95.0.4638.69 Safari/537.36" etag="BKI-YmmE2hH4mhUgk1q-" version="15.8.2" type="github">
  <diagram id="_A12FvU20wVsXRucsCNp" name="Page-1">
    <mxGraphModel dx="1038" dy="547" grid="1" gridSize="10" guides="1" tooltips="1" connect="1" arrows="1" fold="1" page="1" pageScale="1" pageWidth="827" pageHeight="1169" math="0" shadow="0">
      <root>
        <mxCell id="0" />
        <mxCell id="1" parent="0" />
        <mxCell id="64XmbE-9OJ4t9fUyWi_k-1" style="edgeStyle=orthogonalEdgeStyle;curved=0;rounded=1;sketch=0;orthogonalLoop=1;jettySize=auto;html=1;" parent="1" source="H9oEdeWVfIFOoq2dAVlP-1" edge="1">
          <mxGeometry relative="1" as="geometry">
            <mxPoint x="270" y="340" as="targetPoint" />
          </mxGeometry>
        </mxCell>
        <mxCell id="H9oEdeWVfIFOoq2dAVlP-1" value="" style="rounded=1;whiteSpace=wrap;html=1;" parent="1" vertex="1">
          <mxGeometry x="334" y="380" width="80" height="40" as="geometry" />
        </mxCell>
      </root>
    </mxGraphModel>
  </diagram>
</mxfile>
